<svg width="606" height="606" viewBox="0 0 606 606" fill="none" xmlns="http://www.w3.org/2000/svg">
<g clip-path="url(#clip0_980_576)">
<rect width="606" height="606" rx="120" fill="#D13929"/>
<ellipse cx="336.91" cy="182.128" rx="487.5" ry="351" transform="rotate(5.5024 336.91 182.128)" fill="#E24A3C"/>
<ellipse cx="196.433" cy="304.913" rx="74.6022" ry="84.913" fill="white"/>
<ellipse cx="210.989" cy="301.274" rx="52.7674" ry="54.587" fill="black"/>
<ellipse cx="185.515" cy="278.226" rx="23.6543" ry="24.2609" fill="white"/>
<circle cx="236.463" cy="320.076" r="10.3109" fill="white"/>
<path d="M142.452 329.174C206.767 329.174 258.904 367.191 258.904 414.087C258.904 436.981 246.478 457.76 226.275 473.032L46.6904 365.757C67.7141 343.65 102.765 329.174 142.452 329.174Z" fill="#E24A3C"/>
<ellipse cx="153.976" cy="383.761" rx="44.2761" ry="27.9" fill="#D03928"/>
<ellipse cx="427.567" cy="303.913" rx="74.6022" ry="84.913" fill="white"/>
<ellipse cx="413.617" cy="299.061" rx="50.9478" ry="55.8" fill="black"/>
<ellipse cx="413.011" cy="299.061" rx="51.5543" ry="55.8" fill="black"/>
<ellipse cx="389.963" cy="276.013" rx="23.6543" ry="24.2609" fill="white"/>
<ellipse cx="436.665" cy="315.437" rx="10.9174" ry="10.3109" fill="white"/>
<ellipse cx="481.548" cy="410.661" rx="116.452" ry="84.913" fill="#E24A3C"/>
<ellipse cx="471.237" cy="381.548" rx="43.063" ry="29.113" fill="#D03B2A"/>
<path d="M75.5545 180.827C72.4288 183.303 65.8476 191.962 62.9476 195.981C60.7817 199.19 54.9354 207.892 48.878 217.032C41.3062 228.456 40.5016 236.07 40.825 243.049C41.2398 251.998 47.363 259.259 50.9264 261.231C54.5812 265.122 66.1293 264.587 72.4257 263.148C78.7274 261.708 88.6319 250.741 89.7059 248.943C90.7799 247.145 102.286 233.207 106.112 228.367C109.938 223.527 123.592 210.503 128.762 205.17C137.046 196.627 139.972 184.835 139.594 176.693C139.109 166.225 127.896 161.5 123.827 161.105C119.758 160.711 109.969 161.748 100.287 165.11C90.6059 168.473 79.4617 177.732 75.5545 180.827Z" fill="#D9D9D9" fill-opacity="0.34"/>
<path d="M213.799 85.6727C189.801 81.1811 179.605 89.3631 177.507 94.0155C174.861 99.2611 174.847 103.319 175.784 107.784C176.496 111.18 176.204 109.931 181.584 123.527C186.695 136.444 204.125 147.332 212.543 152.503C222.926 149.792 245.621 143.95 253.337 142.262C262.981 140.153 306.867 135.493 310.295 135.352C313.724 135.211 347.511 135.533 361.845 136.084C373.311 136.525 399.668 141.757 411.413 144.318C414.891 140.75 422.739 133.246 425.16 130.624C428.996 126.471 439.875 116.362 443.346 99.6257C445.735 88.1123 441.884 77.9971 429.813 76.7818C424.415 76.2383 400.167 79.7142 388.855 83.0335C379.902 85.6608 358.465 95.6995 348.938 100.658C343.721 103.726 333.433 107.802 334.009 99.5598C334.73 89.2565 329.384 70.6417 327.271 61.0257C325.158 51.4097 321.879 41.2712 316.862 30.6333C311.844 19.9955 305.511 19.1146 297.534 20.0137C289.557 20.9128 279.763 33.3018 275.379 38.0483C270.995 42.7948 275.965 52.2931 280.701 56.0934C284.49 59.1337 287.305 68.188 288.239 72.3351C291.158 87.6254 294.75 116.472 285.763 109.536C274.53 100.866 243.797 91.2871 213.799 85.6727Z" fill="#6BA33A"/>
<path d="M279.102 403.42C273.863 395.592 265.867 394.728 262.523 395.274C257.444 396.58 256.797 401.447 257.244 405.468C257.786 410.345 263.663 416.227 265.333 418.43C267.002 420.633 274.499 427.35 280.3 431.315C287.496 436.234 296.627 440.852 301.44 442.049C309.988 444.176 322.781 443.895 329.789 442.845C336.796 441.796 352.94 431.064 358.667 424.891C364.393 418.718 361.312 412.366 360.478 411.264C359.643 410.163 357.009 407.831 353.153 407.319C349.296 406.806 342.476 413.824 337.138 417.077C332.868 419.679 326.399 421.593 323.699 422.225C319.67 423.01 309.928 423.961 303.193 421.481C294.775 418.381 285.651 413.206 279.102 403.42Z" fill="#A21D0A"/>
</g>
<defs>
<clipPath id="clip0_980_576">
<rect width="606" height="606" rx="120" fill="white"/>
</clipPath>
</defs>
</svg>
