<svg width="682" height="685" viewBox="0 0 682 685" fill="none" xmlns="http://www.w3.org/2000/svg">
<ellipse cx="341" cy="628.5" rx="341" ry="56.5" fill="#D4D4D4"/>
<path d="M665.107 383.047C664.731 534.023 554.452 636.463 354.452 636.463C145.715 636.463 17.2574 532.409 17.6339 381.433C18.0103 230.457 126.452 108.874 342.052 108.874C557.652 108.873 665.484 232.071 665.107 383.047Z" fill="#D1392A"/>
<mask id="mask0_981_614" style="mask-type:alpha" maskUnits="userSpaceOnUse" x="17" y="108" width="649" height="529">
<path d="M665.107 383.047C664.731 534.023 554.452 636.463 354.452 636.463C145.715 636.463 17.2574 532.409 17.6339 381.433C18.0103 230.457 126.452 108.874 342.052 108.874C557.652 108.873 665.484 232.071 665.107 383.047Z" fill="#E24A3C"/>
</mask>
<g mask="url(#mask0_981_614)">
<ellipse cx="386.156" cy="294.933" rx="413.175" ry="267" transform="rotate(-3.40505 386.156 294.933)" fill="#E24A3C"/>
</g>
<ellipse cx="231.385" cy="347.876" rx="74.6022" ry="84.913" fill="white"/>
<ellipse cx="245.941" cy="344.237" rx="52.7674" ry="54.587" fill="black"/>
<ellipse cx="220.467" cy="321.189" rx="23.6543" ry="24.2609" fill="white"/>
<circle cx="271.415" cy="363.039" r="10.3109" fill="white"/>
<path d="M116.669 384.586C134.352 376.689 155.149 372.137 177.404 372.137C241.719 372.137 293.857 410.154 293.857 457.05C293.857 480.637 280.668 501.977 259.374 517.364L117.005 438.27L116.669 384.586Z" fill="#E24A3C"/>
<ellipse cx="188.928" cy="426.724" rx="44.2761" ry="27.9" fill="#D03928"/>
<ellipse cx="462.52" cy="346.876" rx="74.6022" ry="84.913" fill="white"/>
<ellipse cx="448.57" cy="342.024" rx="50.9478" ry="55.8" fill="black"/>
<ellipse cx="447.963" cy="342.024" rx="51.5543" ry="55.8" fill="black"/>
<ellipse cx="424.915" cy="318.976" rx="23.6543" ry="24.2609" fill="white"/>
<ellipse cx="471.617" cy="358.4" rx="10.9174" ry="10.3109" fill="white"/>
<ellipse cx="516.5" cy="453.624" rx="116.452" ry="84.913" fill="#E24A3C"/>
<ellipse cx="506.189" cy="424.511" rx="43.063" ry="29.113" fill="#D03B2A"/>
<path d="M240.744 64.74C216.894 59.521 206.453 67.3892 204.215 71.9757C201.41 77.1384 201.273 81.1941 202.074 85.6859C202.682 89.1012 202.429 87.8439 207.393 101.597C212.109 114.664 229.2 126.077 237.457 131.501C247.917 129.108 270.779 123.957 278.543 122.505C288.247 120.69 332.254 117.366 335.685 117.33C339.117 117.293 372.878 118.641 387.188 119.628C398.636 120.418 424.822 126.448 436.483 129.365C440.069 125.904 448.141 118.642 450.64 116.096C454.601 112.061 465.782 102.287 469.761 85.6643C472.498 74.2288 468.956 64.0013 456.928 62.4196C451.549 61.7122 427.206 64.4494 415.799 67.4233C406.77 69.7773 385.038 79.1596 375.364 83.8259C370.057 86.7344 359.649 90.4961 360.476 82.2748C361.51 71.9982 356.733 53.2294 354.913 43.5537C353.093 33.8779 350.123 23.6444 345.432 12.8589C340.74 2.07347 334.437 1.00051 326.436 1.65669C318.435 2.31288 308.269 14.3984 303.743 19.0095C299.217 23.6205 305.122 34.8876 308.225 40.1072C311.556 45.711 314.473 50.6549 315.28 54.8285C317.733 70.2004 320.721 97.9858 311.949 90.7801C300.985 81.7728 270.557 71.2637 240.744 64.74Z" fill="#6BA33A"/>
<path d="M314.054 446.384C308.815 438.555 300.819 437.691 297.476 438.237C292.396 439.543 291.749 444.41 292.196 448.431C292.738 453.308 298.616 459.19 300.285 461.393C301.955 463.596 309.451 470.313 315.252 474.278C322.448 479.197 331.579 483.815 336.393 485.012C344.941 487.139 357.733 486.858 364.741 485.808C371.749 484.759 387.892 474.027 393.619 467.854C399.345 461.681 396.265 455.329 395.43 454.227C394.595 453.126 391.961 450.794 388.105 450.282C384.248 449.769 377.428 456.787 372.09 460.04C367.82 462.642 361.351 464.556 358.651 465.188C354.622 465.973 344.88 466.924 338.145 464.444C329.727 461.344 320.603 456.169 314.054 446.384Z" fill="#A21D0A"/>
<path d="M115.842 227.204C112.616 229.549 105.682 237.927 102.617 241.823C100.32 244.939 94.1181 253.391 87.6868 262.272C79.6477 273.372 78.528 280.946 78.5616 287.932C78.6048 296.891 84.4216 304.399 87.9001 306.517C91.3904 310.557 102.951 310.502 109.301 309.325C115.657 308.148 126.008 297.601 127.156 295.849C128.304 294.096 140.378 280.648 144.402 275.971C148.425 271.294 162.607 258.847 167.994 253.734C176.625 245.541 180.038 233.881 179.998 225.731C179.948 215.251 168.94 210.065 164.891 209.502C160.842 208.939 151.018 209.569 141.205 212.527C131.393 215.485 119.874 224.274 115.842 227.204Z" fill="#D9D9D9" fill-opacity="0.34"/>
</svg>
